<svg width="160" height="320" viewBox="0 0 160 320" fill="none" xmlns="http://www.w3.org/2000/svg">
<path d="M44.0767 0H26.0438L16.1472 121.6H34.1798L44.0767 0Z" fill="#FC7A1E"/>
<path d="M29.027 121.601H21.299L20.6479 129.601H28.3758L29.027 121.601Z" fill="#FC7A1E"/>
<path d="M33.5286 129.6H15.496L6.25049 243.2H24.2829L33.5286 129.6Z" fill="#FC7A1E"/>
<path d="M19.1308 243.2H11.4026L10.7515 251.2H18.4797L19.1308 243.2Z" fill="#FC7A1E"/>
<path d="M23.6319 251.199H5.59937L0 319.999H18.0326L23.6319 251.199Z" fill="#FC7A1E"/>
<path d="M82.7174 0H64.6844L58.4341 76.7999H76.4661L82.7174 0Z" fill="#EDAB35"/>
<path d="M71.3143 76.7997H63.5867L62.9355 84.7997H70.6631L71.3143 76.7997Z" fill="#EDAB35"/>
<path d="M75.8156 84.7998H57.7827L48.5378 198.4H66.5698L75.8156 84.7998Z" fill="#EDAB35"/>
<path d="M61.4183 198.399H53.6897L53.0386 206.399H60.7671L61.4183 198.399Z" fill="#EDAB35"/>
<path d="M65.9189 206.4H47.8869L38.6411 320H56.674L65.9189 206.4Z" fill="#EDAB35"/>
<path d="M121.358 0H103.326L90.3044 160H108.336L121.358 0Z" fill="#68A9B9"/>
<path d="M103.185 160H95.4563L94.8052 168H102.534L103.185 160Z" fill="#68A9B9"/>
<path d="M107.685 167.999H89.6523L80.4075 281.599H98.4395L107.685 167.999Z" fill="#68A9B9"/>
<path d="M93.2879 281.599H85.5594L84.9082 289.599H92.6367L93.2879 281.599Z" fill="#68A9B9"/>
<path d="M97.7894 289.6H79.7565L77.283 320H95.315L97.7894 289.6Z" fill="#68A9B9"/>
<path d="M160 0H141.967L138.842 38.3999H156.874L160 0Z" fill="#F2F2F2"/>
<path d="M151.722 38.3998H143.994L143.343 46.3998H151.071L151.722 38.3998Z" fill="#F2F2F2"/>
<path d="M156.223 46.3995H138.191L128.945 159.999H146.978L156.223 46.3995Z" fill="#F2F2F2"/>
<path d="M141.826 160H134.097L133.446 168H141.174L141.826 160Z" fill="#F2F2F2"/>
<path d="M146.327 167.999H128.294L115.924 319.999H133.956L146.327 167.999Z" fill="#F2F2F2"/>
</svg>
